<?xml version="1.0" encoding="UTF-8"?>
<svg version="1.1" xmlns="http://www.w3.org/2000/svg" width="1024" height="1024">
<path d="M0 0 C0.85737782 -0.00224729 1.71475564 -0.00449459 2.59811461 -0.00680998 C3.54744612 -0.00418297 4.49677763 -0.00155595 5.47487676 0.00115067 C6.48176679 -0.00000318 7.48865682 -0.00115702 8.52605867 -0.00234583 C11.93920712 -0.00501711 15.35230949 -0.00048613 18.7654556 0.00394398 C21.22143804 0.00350838 23.67742044 0.00263369 26.13340259 0.00135481 C31.49334939 -0.00042188 36.85328208 0.00093245 42.21322668 0.00499302 C50.18333645 0.01101427 58.15343921 0.01133011 66.12355085 0.01045103 C79.52886262 0.00913535 92.93416947 0.01248529 106.3394798 0.01846844 C119.61781817 0.02437977 132.89615448 0.02823323 146.17449415 0.02932125 C147.41160243 0.02942436 147.41160243 0.02942436 148.6737028 0.02952956 C152.8619116 0.02986788 157.05012041 0.03016926 161.23832922 0.03045643 C190.92513763 0.03255842 220.61194337 0.03930016 250.29875028 0.04875904 C279.14412774 0.05793924 307.98950447 0.06502493 336.83488309 0.06926686 C337.72358331 0.06939838 338.61228352 0.06952991 339.52791405 0.06966542 C348.45237776 0.07098391 357.37684147 0.07225973 366.30130519 0.07350428 C384.48245026 0.07604068 402.66359528 0.07886194 420.84474027 0.08185536 C421.6807316 0.08199265 422.51672293 0.08212994 423.37804733 0.08227139 C479.23084787 0.09147642 535.0836469 0.10734289 590.93644559 0.1241985 C591.41135356 3.89424339 591.88479432 7.66447123 592.35800016 11.43473011 C592.49056951 12.48698576 592.62313885 13.5392414 592.75972545 14.62338358 C593.84789461 23.30228426 594.85336924 31.98891224 595.80012357 40.68433338 C595.90173418 41.61550291 596.00334478 42.54667244 596.10803449 43.50605923 C596.21254297 44.46414675 596.31705144 45.42223427 596.42472684 46.40935475 C596.65084104 48.46977095 596.87711279 50.53016987 597.10352933 52.59055287 C597.69878475 58.01143652 598.29184794 63.43255774 598.88440931 68.85373646 C599.49722561 74.45672726 600.11211046 80.05949108 600.7267288 85.66228443 C602.0283889 97.53186162 603.32710809 109.40175919 604.62463224 121.27178913 C604.91873247 123.96216222 605.21291033 126.65252681 605.5071243 129.34288746 C607.3216979 145.93613541 609.13305529 162.52973089 610.93644559 179.1241985 C607.829337 181.19560422 605.93015391 181.69834698 602.31535184 182.413261 C600.66502958 182.74197193 600.66502958 182.74197193 598.98136747 183.0773235 C597.83216825 183.29904225 596.68296903 183.520761 595.49894559 183.7491985 C593.78094755 184.09337818 593.78094755 184.09337818 592.02824247 184.444511 C583.48483194 186.1241985 583.48483194 186.1241985 578.93644559 186.1241985 C578.93644559 185.4641985 578.93644559 184.8041985 578.93644559 184.1241985 C578.27644559 183.7941985 577.61644559 183.4641985 576.93644559 183.1241985 C576.45699388 181.06940545 575.98746038 179.0118457 575.56535184 176.944511 C574.83494247 173.66901058 573.9460778 170.46872773 572.99894559 167.2491985 C572.68054716 166.15865162 572.36214872 165.06810475 572.03410184 163.944511 C571.18827387 161.13348343 571.18827387 161.13348343 569.37003934 159.741386 C567.36228854 157.47651179 567.54335419 155.25344783 567.27677763 152.335136 C566.68424654 148.48580925 565.01275916 145.12898791 563.37394559 141.6241985 C562.87991239 140.53365162 562.87991239 140.53365162 562.37589872 139.4210735 C561.57239538 137.65103716 560.7557871 135.88695933 559.93644559 134.1241985 C559.27644559 134.1241985 558.61644559 134.1241985 557.93644559 134.1241985 C557.87328153 133.15740162 557.81011747 132.19060475 557.74503934 131.194511 C557.01989894 126.19016251 554.56649971 122.2820641 551.99894559 117.9991985 C551.50386503 117.1624358 551.00878446 116.32567311 550.49870145 115.46355397 C538.78616027 95.77052879 538.78616027 95.77052879 521.93644559 81.1241985 C521.93644559 80.4641985 521.93644559 79.8041985 521.93644559 79.1241985 C521.08759794 78.74328053 521.08759794 78.74328053 520.22160184 78.35466725 C517.64577675 76.96768451 515.61529773 75.31618488 513.37394559 73.4366985 C507.51618144 68.67400598 501.16661076 63.53425355 493.93644559 61.1241985 C493.03925809 60.4435735 493.03925809 60.4435735 492.12394559 59.7491985 C487.89688266 56.6090946 484.27906251 54.65279112 478.93644559 55.1241985 C478.93644559 54.4641985 478.93644559 53.8041985 478.93644559 53.1241985 C477.64717568 52.76140394 476.35491287 52.40923152 475.06144559 52.0616985 C474.34214872 51.86447193 473.62285184 51.66724537 472.88175809 51.46404225 C470.86370966 50.91287243 470.86370966 50.91287243 468.93644559 52.1241985 C468.93644559 51.4641985 468.93644559 50.8041985 468.93644559 50.1241985 C454.89630856 45.07692296 440.4234503 43.1484535 425.56535184 42.54216725 C424.09801855 42.48059437 424.09801855 42.48059437 422.60104215 42.4177776 C409.82045547 41.93803739 397.03590111 42.05305163 384.24894559 42.1241985 C379.34920807 42.15103062 374.44951085 42.17086033 369.54972684 42.1866985 C368.45888288 42.19499684 367.36803892 42.20329518 366.24413908 42.21184498 C364.67511083 42.21679981 364.67511083 42.21679981 363.07438505 42.22185475 C362.17557111 42.22709156 361.27675718 42.23232838 360.35070646 42.23772389 C357.12383847 42.13042938 353.93953483 41.89108371 350.72305429 41.61710316 C349.64011266 41.52531505 348.55717103 41.43352694 347.44141299 41.33895737 C346.61477375 41.26808694 345.78813451 41.19721651 344.93644559 41.1241985 C345.01833059 99.28293453 345.11054405 157.44164689 345.21649721 215.60034426 C345.22902172 222.47662235 345.24145029 229.35290061 345.25382841 236.22917897 C345.25567839 237.25552082 345.25567839 237.25552082 345.25756575 238.30259685 C345.29740868 260.43168854 345.33093091 282.56078425 345.3611325 304.68989102 C345.39311822 328.1008561 345.43239706 351.51179723 345.47923565 374.92273825 C345.50702654 388.92924837 345.52910002 402.93574298 345.5437081 416.94227315 C345.55430308 426.56528862 345.57218065 436.18827396 345.59561263 445.81126665 C345.60889358 451.35157504 345.6191294 456.89184148 345.62065923 462.43216664 C343.42308823 522.10157373 343.42308823 522.10157373 368.53019559 573.80779225 C386.63868521 591.2401532 412.09453708 594.89985933 436.12394559 596.1866985 C438.24445679 596.30243274 440.36478154 596.42010617 442.48486173 596.54349476 C444.37884456 596.65351283 446.27323956 596.75636641 448.16764677 596.85881764 C450.93644559 597.1241985 450.93644559 597.1241985 451.93644559 598.1241985 C451.98554405 599.47747478 451.97260409 600.83301466 451.93644559 602.1866985 C451.87142522 606.98014485 452.11691277 611.71606349 452.43644559 616.49529225 C452.48414091 617.23162892 452.53183622 617.96796559 452.58097684 618.72661549 C452.69776746 620.52592091 452.81686888 622.32507609 452.93644559 624.1241985 C412.31475407 624.14706323 371.69306337 624.16469589 331.0713667 624.17526383 C326.2808689 624.17651461 321.49037111 624.17780892 316.69987333 624.17913014 C315.26925763 624.1795236 315.26925763 624.1795236 313.8097406 624.17992502 C298.34571618 624.18428206 282.88169546 624.1921698 267.41767324 624.20135129 C251.56246465 624.21068687 235.70725801 624.2162539 219.85204679 624.21828699 C210.06033211 624.21966242 200.26862789 624.22401407 190.47691642 624.23211496 C183.77187097 624.23738124 177.06683095 624.23900306 170.36178357 624.23769987 C166.4873177 624.23705631 162.61287015 624.23807609 158.73840749 624.24340397 C154.54798405 624.24912461 150.35760016 624.24719976 146.16717374 624.24445301 C144.92887408 624.24736585 143.69057441 624.2502787 142.41475052 624.25327981 C141.30155628 624.25128876 140.18836204 624.24929771 139.04143465 624.24724633 C138.07276808 624.24762605 137.10410152 624.24800577 136.10608143 624.24839699 C133.93644559 624.1241985 133.93644559 624.1241985 132.93644559 623.1241985 C132.84896352 621.19752342 132.82947225 619.26767989 132.83878934 617.33904225 C132.842012 616.16921803 132.84523466 614.99939381 132.84855497 613.79412037 C132.85693388 612.56242115 132.86531278 611.33072193 132.87394559 610.0616985 C132.87845731 608.82613209 132.88296903 607.59056568 132.88761747 606.31755787 C132.89944952 603.25305733 132.91593386 600.18865128 132.93644559 597.1241985 C137.97831404 596.4126 142.7083617 596.05362488 147.81144559 596.1866985 C172.64583481 596.28514999 199.46089824 590.97132587 217.93644559 573.1241985 C218.26644559 572.4641985 218.59644559 571.8041985 218.93644559 571.1241985 C219.59644559 571.1241985 220.25644559 571.1241985 220.93644559 571.1241985 C221.01894559 570.5466985 221.10144559 569.9691985 221.18644559 569.3741985 C221.93644559 567.1241985 221.93644559 567.1241985 223.76457059 565.37810475 C241.44056913 547.03448756 240.09640462 513.38727239 240.05670011 489.8317638 C240.05713681 487.89426217 240.05801353 485.9567606 240.05928928 484.01925933 C240.06151484 478.72408829 240.0575396 473.42893766 240.05251122 468.13376921 C240.04817896 462.41274453 240.04965511 456.69172094 240.05041349 450.97069508 C240.05093697 441.06819789 240.04780857 431.16570731 240.04217565 421.26321179 C240.03403679 406.94599441 240.03144298 392.62878022 240.03018766 378.31156079 C240.02800089 355.08089196 240.02135959 331.85022673 240.01188505 308.61955982 C240.00269393 286.05771105 239.9956136 263.49586322 239.99137723 240.93401295 C239.99124571 240.23799868 239.99111418 239.54198441 239.99097867 238.8248788 C239.9896601 231.8349261 239.98838429 224.84497339 239.98713981 217.85502067 C239.97670685 159.27807763 239.95906802 100.70113808 239.93644559 42.1241985 C230.94604239 42.10073736 221.95565017 42.08311524 212.96522272 42.07238632 C208.78789452 42.06722974 204.61058768 42.06026851 200.43327177 42.04875904 C177.54680811 41.95461212 177.54680811 41.95461212 154.67082059 42.553886 C153.35657354 42.61001309 153.35657354 42.61001309 152.01577604 42.66727406 C119.93790755 44.28486732 87.85044638 56.3035684 64.53800809 78.76091725 C62.93644559 80.1241985 62.93644559 80.1241985 60.93644559 80.1241985 C60.93644559 80.7841985 60.93644559 81.4441985 60.93644559 82.1241985 C60.27644559 82.1241985 59.61644559 82.1241985 58.93644559 82.1241985 C58.69667997 82.68880787 58.45691434 83.25341725 58.20988309 83.835136 C56.67137472 86.6006756 54.77879578 88.48879297 52.56144559 90.7491985 C41.6150091 102.62892943 33.70278324 116.54321738 26.93644559 131.1241985 C26.49042997 132.03943287 26.04441434 132.95466725 25.58488309 133.897636 C18.82999084 148.06111976 14.15356388 163.18672192 9.55119169 178.15398365 C8.71815788 180.82379415 7.83345273 183.4752901 6.93644559 186.1241985 C-1.82217003 185.32796071 -10.41915948 183.70222237 -19.06355441 182.1241985 C-19.06355441 182.4541985 -19.06355441 182.7841985 -19.06355441 183.1241985 C-20.71355441 183.1241985 -22.36355441 183.1241985 -24.06355441 183.1241985 C-25.41672672 176.64686835 -24.66612971 170.75759683 -23.84871066 164.2335735 C-23.71411944 163.09317616 -23.57952822 161.95277882 -23.44085848 160.77782398 C-23.01106437 157.1422109 -22.56963685 153.50815313 -22.12605441 149.8741985 C-21.68692281 146.25444084 -21.25056853 142.63443943 -20.821962 139.01341969 C-20.55565365 136.76538509 -20.28336611 134.51804757 -20.00399935 132.2715984 C-19.2015076 125.52080074 -18.90005238 118.92103847 -19.06355441 112.1241985 C-18.40355441 112.1241985 -17.74355441 112.1241985 -17.06355441 112.1241985 C-17.02109591 111.23458424 -16.97863741 110.34496998 -16.9348923 109.42839772 C-16.21912842 96.29640617 -14.68315542 83.28287835 -13.14485323 70.225761 C-12.7991578 67.27837845 -12.46037169 64.33025893 -12.12214816 61.382011 C-12.01591631 60.49949665 -11.90968447 59.61698231 -11.80023348 58.70772511 C-11.12835017 52.82271318 -10.94292889 47.04548227 -11.06355441 41.1241985 C-10.73355441 41.1241985 -10.40355441 41.1241985 -10.06355441 41.1241985 C-9.48936419 36.39247406 -8.9198523 31.66021807 -8.35457003 26.92742115 C-8.16182875 25.31919563 -7.96783503 23.71111966 -7.77253878 22.1032024 C-7.49120476 19.78506752 -7.21445665 17.46642287 -6.93855441 15.147636 C-6.85105929 14.43489521 -6.76356417 13.72215443 -6.67341769 12.98781544 C-6.20506017 9.00942696 -5.97589165 5.12929085 -6.06355441 1.1241985 C-3.78138684 -0.01688529 -2.5351022 -0.00053281 0 0 Z " fill="#0B0C0A" transform="translate(219.06355440616608,199.8758015036583)"/>
<path d="M0 0 C0.66 0 1.32 0 2 0 C2.33 7.59 2.66 15.18 3 23 C6.7665097 22.99555878 10.53301941 22.99111755 14.41366577 22.98654175 C48.92068307 22.94677814 83.42769752 22.91690293 117.9347327 22.89786934 C122.45355882 22.8953678 126.97238489 22.89277917 131.49121094 22.89013672 C132.84068658 22.88934979 132.84068658 22.88934979 134.21742435 22.88854696 C148.80133198 22.87983462 163.38522391 22.8640601 177.96912222 22.84569441 C192.923715 22.82701839 207.87829954 22.81588815 222.8329035 22.81182301 C232.06725327 22.80907317 241.30155866 22.80037533 250.53589477 22.78416707 C256.86063629 22.77362851 263.18535473 22.77039224 269.5101044 22.77299725 C273.16396343 22.77428344 276.8177447 22.77225542 280.47159004 22.76158905 C284.42521164 22.75013129 288.37873049 22.75400197 292.33236694 22.75949097 C293.4977167 22.75366528 294.66306645 22.7478396 295.86372983 22.74183738 C296.916214 22.74581948 297.96869817 22.74980158 299.05307579 22.75390434 C299.9666829 22.7531449 300.88029002 22.75238546 301.8215822 22.75160301 C304 23 304 23 306 25 C205.02 25 104.04 25 0 25 C0 16.75 0 8.5 0 0 Z " fill="#030302" transform="translate(353,798)"/>
<path d="M0 0 C0.85345505 0.00045319 1.7069101 0.00090637 2.58622742 0.00137329 C3.48060516 -0.00198532 4.37498291 -0.00534393 5.29646301 -0.00880432 C8.27188993 -0.01835079 11.24726072 -0.02025975 14.22270203 -0.02133179 C16.28719099 -0.0245435 18.35167973 -0.02790751 20.41616821 -0.03141785 C24.75492378 -0.03741954 29.0936594 -0.03925685 33.43241882 -0.03866577 C38.98174035 -0.03856448 44.53093298 -0.05217812 50.08022404 -0.06943798 C54.35000185 -0.08058369 58.61974885 -0.08258413 62.88953972 -0.08205605 C64.93438089 -0.08323377 66.97922292 -0.08764387 69.02404976 -0.09538841 C71.89382403 -0.10523325 74.7633233 -0.10229175 77.63310242 -0.09628296 C78.47238785 -0.10190247 79.31167328 -0.10752197 80.1763916 -0.11331177 C85.45616906 -0.08535211 89.98563049 0.68069332 95.06254578 2.14663696 C95.06254578 2.47663696 95.06254578 2.80663696 95.06254578 3.14663696 C94.23738464 3.10119751 94.23738464 3.10119751 93.39555359 3.05484009 C81.24191958 2.40651328 69.10929863 2.04071993 56.93754578 2.02163696 C55.13398621 2.01486938 55.13398621 2.01486938 53.29399109 2.00796509 C52.16316101 2.00989868 51.03233093 2.01183228 49.86723328 2.01382446 C48.36652283 2.01551636 48.36652283 2.01551636 46.835495 2.01724243 C44.10371355 2.07236964 44.10371355 2.07236964 41.63920593 2.64663696 C38.39973477 3.27525521 35.33105312 3.27642771 32.03129578 3.27944946 C31.02274536 3.28088455 31.02274536 3.28088455 29.99382019 3.28234863 C28.57174079 3.28302707 27.14965824 3.28119631 25.72758484 3.27700806 C23.59697616 3.27172238 21.46658486 3.2769293 19.33598328 3.28335571 C17.94275366 3.28269357 16.54952417 3.28140961 15.15629578 3.27944946 C13.91557312 3.27832153 12.67485046 3.2771936 11.39653015 3.27603149 C5.60886297 3.10323611 -0.1642634 2.59072856 -5.93745422 2.14663696 C-5.93745422 155.59663696 -5.93745422 309.04663696 -5.93745422 467.14663696 C-6.26745422 467.14663696 -6.59745422 467.14663696 -6.93745422 467.14663696 C-6.96031792 407.79801389 -6.97795311 348.44939088 -6.98851955 289.10076434 C-6.98976694 282.10213919 -6.99106349 275.10351405 -6.99238586 268.10488892 C-6.99251662 267.40842298 -6.99264738 266.71195704 -6.9927821 265.99438608 C-6.99704727 243.39953133 -7.00456141 220.80467907 -7.01375144 198.20982583 C-7.02344115 174.3432448 -7.02944783 150.47666553 -7.03154272 126.61008257 C-7.03291829 112.30407792 -7.03727071 97.99808043 -7.04537069 83.69207799 C-7.05063612 73.89638973 -7.05225898 64.1007052 -7.0509556 54.30501563 C-7.0503119 48.64426698 -7.05133331 42.98353087 -7.0566597 37.32278442 C-7.06149213 32.14955979 -7.06179391 26.97635624 -7.05835312 21.80313068 C-7.05792727 19.92290955 -7.05922432 18.04268716 -7.06233741 16.16246856 C-7.06629881 13.62407903 -7.06421924 11.08576759 -7.06050205 8.54737949 C-7.06312907 7.80238153 -7.06575608 7.05738357 -7.0684627 6.28980991 C-7.04686753 -0.1506085 -6.35973879 0.03511996 0 0 Z " fill="#020101" transform="translate(568.9374542236328,238.85336303710938)"/>
<path d="M0 0 C2.97953359 0.14017826 5.95849304 0.28686342 8.9375 0.4375 C9.78763672 0.47681641 10.63777344 0.51613281 11.51367188 0.55664062 C12.32255859 0.59853516 13.13144531 0.64042969 13.96484375 0.68359375 C15.08814087 0.73858032 15.08814087 0.73858032 16.23413086 0.79467773 C18 1 18 1 19 2 C19.04909846 3.35327628 19.0361585 4.70881617 19 6.0625 C18.91460136 13.39610808 19.49200711 20.68853084 20 28 C17.87436897 27.88623383 15.7494739 27.75864369 13.625 27.625 C12.44164062 27.55539062 11.25828125 27.48578125 10.0390625 27.4140625 C7 27 7 27 5 25 C8.63 25 12.26 25 16 25 C16 17.74 16 10.48 16 3 C14.68 3.33 13.36 3.66 12 4 C12 3.34 12 2.68 12 2 C8.04 2 4.08 2 0 2 C0 1.34 0 0.68 0 0 Z " fill="#2D2A22" transform="translate(652,796)"/>
<path d="M0 0 C0.33 0 0.66 0 1 0 C1.50835545 4.31155728 2.00516054 8.62437227 2.5 12.9375 C2.64308594 14.14986328 2.78617188 15.36222656 2.93359375 16.61132812 C3.67479553 23.12331516 4.16967382 29.44634865 4 36 C0.2237411 32.23386512 0.4584214 28.27803445 0.3125 23.25 C0.26125977 22.06083984 0.26125977 22.06083984 0.20898438 20.84765625 C0.12680896 18.89892496 0.06171955 16.94948638 0 15 C-0.33 15 -0.66 15 -1 15 C-0.67 10.05 -0.34 5.1 0 0 Z " fill="#23221D" transform="translate(820,297)"/>
<path d="M0 0 C0.33 0.66 0.66 1.32 1 2 C1.66 2 2.32 2 3 2 C4.3300103 10.97756951 4.08788039 19.94831966 4 29 C1.99968547 25.9995282 1.68798021 24.97333567 1.3671875 21.54296875 C1.28339844 20.67736328 1.19960938 19.81175781 1.11328125 18.91992188 C1.03464844 18.01822266 0.95601562 17.11652344 0.875 16.1875 C0.78863281 15.29740234 0.70226562 14.40730469 0.61328125 13.49023438 C0.19180918 8.97780719 -0.10499824 4.53742382 0 0 Z " fill="#161511" transform="translate(816,277)"/>
<path d="M0 0 C3.41994785 3.14202884 5.8938244 6.63159944 8.3125 10.5625 C8.68439453 11.13935547 9.05628906 11.71621094 9.43945312 12.31054688 C10.48828125 14.00390625 10.48828125 14.00390625 12 17 C11.67 17.99 11.34 18.98 11 20 C8.37046072 16.62390383 6.0705073 13.0674611 3.8125 9.4375 C3.26045898 8.5722168 3.26045898 8.5722168 2.69726562 7.68945312 C0 3.35080879 0 3.35080879 0 0 Z " fill="#1B1915" transform="translate(763,302)"/>
<path d="M0 0 C0.99 0.66 1.98 1.32 3 2 C0.89674758 3.62619517 -1.20755729 5.25099532 -3.3125 6.875 C-4.20485352 7.56529297 -4.20485352 7.56529297 -5.11523438 8.26953125 C-7.70028005 10.26247149 -10.28299068 12.18866045 -13 14 C-13 11 -13 11 -11.42578125 9.31640625 C-10.72839844 8.73761719 -10.03101563 8.15882813 -9.3125 7.5625 C-8.58675781 6.9540625 -7.86101562 6.345625 -7.11328125 5.71875 C-2.07567568 1.62162162 -2.07567568 1.62162162 0 0 Z " fill="#1D1B17" transform="translate(296,264)"/>
<path d="M0 0 C0.33 0.99 0.66 1.98 1 3 C-0.52493465 5.4805997 -2.0698518 7.74447133 -3.8125 10.0625 C-4.27720703 10.69994141 -4.74191406 11.33738281 -5.22070312 11.99414062 C-7.03793886 14.46839703 -8.82646243 16.82646243 -11 19 C-10.42870947 14.75392172 -8.95658013 11.94615438 -6.625 8.375 C-6.01914062 7.43398438 -5.41328125 6.49296875 -4.7890625 5.5234375 C-3.30835797 3.43493285 -1.88114569 1.7195749 0 0 Z " fill="#181813" transform="translate(266,293)"/>
<path d="M0 0 C0.33 0 0.66 0 1 0 C1.19401633 1.81181405 1.38004375 3.62448532 1.5625 5.4375 C1.66691406 6.44683594 1.77132812 7.45617187 1.87890625 8.49609375 C1.93884766 9.73552734 1.93884766 9.73552734 2 11 C1.67 11.33 1.34 11.66 1 12 C0.92794489 13.68608966 0.91613932 15.37500659 0.9375 17.0625 C0.94652344 17.98160156 0.95554688 18.90070313 0.96484375 19.84765625 C0.97644531 20.55792969 0.98804688 21.26820313 1 22 C0.34 22 -0.32 22 -1 22 C-1.33 23.32 -1.66 24.64 -2 26 C-1.85771699 23.16644901 -1.71126584 20.33321213 -1.5625 17.5 C-1.52318359 16.70851562 -1.48386719 15.91703125 -1.44335938 15.1015625 C-1.17294782 10.02614559 -0.6872858 5.03624555 0 0 Z " fill="#201E19" transform="translate(213,207)"/>
<path d="M0 0 C0.98226562 0.09087891 0.98226562 0.09087891 1.984375 0.18359375 C8.98663453 0.82645656 15.99184389 1.42515997 23 2 C23 2.33 23 2.66 23 3 C19.37 3 15.74 3 12 3 C12 3.66 12 4.32 12 5 C8.7 4.34 5.4 3.68 2 3 C2 2.34 2 1.68 2 1 C1.34 0.67 0.68 0.34 0 0 Z " fill="#333028" transform="translate(628,794)"/>
<path d="M0 0 C1 2 1 2 0.0625 5.125 C-0.288125 6.07375 -0.63875 7.0225 -1 8 C-2.41750563 7.88490339 -3.83401169 7.75746342 -5.25 7.625 C-6.03890625 7.55539062 -6.8278125 7.48578125 -7.640625 7.4140625 C-10.085877 6.98492887 -11.84836903 6.21399362 -14 5 C-9.91556885 3.46833832 -6.20544343 4.36918348 -2 5 C-1.855625 4.360625 -1.71125 3.72125 -1.5625 3.0625 C-1 1 -1 1 0 0 Z " fill="#25231C" transform="translate(227,378)"/>
<path d="M0 0 C0.33 0.66 0.66 1.32 1 2 C0.13699144 4.37695532 -0.78125553 6.6352409 -1.8125 8.9375 C-2.08642578 9.57107422 -2.36035156 10.20464844 -2.64257812 10.85742188 C-3.9170389 13.76392595 -5.23476633 16.35214949 -7 19 C-8.33571709 15.96427935 -7.94915343 14.86525658 -6.75 11.6875 C-6.16824729 10.45758445 -5.58485208 9.22844476 -5 8 C-4.47615474 6.70955191 -3.95520108 5.41792526 -3.4375 4.125 C-2 1 -2 1 0 0 Z " fill="#211F1B" transform="translate(244,331)"/>
<path d="M0 0 C0.49628906 0.38671875 0.99257813 0.7734375 1.50390625 1.171875 C5.84883147 4.50270951 10.18629161 7.39257462 15 10 C14.67 10.66 14.34 11.32 14 12 C10.24651068 10.65994431 7.34103233 8.99432841 4.1875 6.5625 C3.39730469 5.96566406 2.60710938 5.36882813 1.79296875 4.75390625 C1.20128906 4.17511719 0.60960937 3.59632813 0 3 C0 2.01 0 1.02 0 0 Z " fill="#1F1E19" transform="translate(587,774)"/>
<path d="M0 0 C0.33 0 0.66 0 1 0 C1.33 3.96 1.66 7.92 2 12 C1.34 12 0.68 12 0 12 C0.33 14.64 0.66 17.28 1 20 C0.34 20 -0.32 20 -1 20 C-1.33 21.32 -1.66 22.64 -2 24 C-1.50311992 15.97591531 -0.98025099 7.98204378 0 0 Z " fill="#2F2C25" transform="translate(205,278)"/>
<path d="M0 0 C1.67128932 2.94381488 2.27731759 5.17383394 2.4140625 8.546875 C2.45273437 9.39121094 2.49140625 10.23554688 2.53125 11.10546875 C2.57765625 12.41451172 2.57765625 12.41451172 2.625 13.75 C2.66367187 14.63816406 2.70234375 15.52632812 2.7421875 16.44140625 C2.83620873 18.6273998 2.92186143 20.81339062 3 23 C2.67 23 2.34 23 2 23 C0.84254848 18.25651565 -0.13631029 13.90717051 0 9 C-0.185625 8.154375 -0.37125 7.30875 -0.5625 6.4375 C-1.01843224 3.89730609 -0.80702504 2.42107512 0 0 Z " fill="#25231C" transform="translate(809,201)"/>
<path d="M0 0 C0.66 0.99 1.32 1.98 2 3 C-1.63 2.67 -5.26 2.34 -9 2 C-9 2.33 -9 2.66 -9 3 C-10.65 3 -12.3 3 -14 3 C-14 2.01 -14 1.02 -14 0 C-9.05481566 -0.90829916 -4.9210335 -1.15789023 0 0 Z " fill="#35322B" transform="translate(209,380)"/>
<path d="M0 0 C0.66 0 1.32 0 2 0 C1.54619105 1.89692143 1.08675008 3.79249595 0.625 5.6875 C0.36976563 6.74324219 0.11453125 7.79898437 -0.1484375 8.88671875 C-0.91905489 11.70406766 -1.85498543 14.31668325 -3 17 C-4.1875 15.4375 -4.1875 15.4375 -5 13 C-3.75 9.625 -3.75 9.625 -2.87109375 7.81640625 C-1.66063775 5.29236123 -0.84482826 2.66445837 0 0 Z " fill="#1D1C17" transform="translate(234,353)"/>
<path d="M0 0 C0.39703125 0.46921875 0.7940625 0.9384375 1.203125 1.421875 C-5.50466122 0.64789967 -12.14261801 -0.43581088 -18.796875 -1.578125 C-18.796875 -1.908125 -18.796875 -2.238125 -18.796875 -2.578125 C-12.74237616 -3.8943204 -4.93591179 -4.33501818 0 0 Z " fill="#2D2A24" transform="translate(681.796875,245.578125)"/>
<path d="M0 0 C0.99 0 1.98 0 3 0 C4.49821059 3.37097383 5 5.20442119 5 9 C5.66 9 6.32 9 7 9 C6.67 9.99 6.34 10.98 6 12 C5.54625 11.38125 5.0925 10.7625 4.625 10.125 C3.02891081 7.94080167 3.02891081 7.94080167 1 6 C0.34437636 3.90200436 0 2.19959601 0 0 Z " fill="#2E2B24" transform="translate(777,328)"/>
<path d="M0 0 C0.66 0 1.32 0 2 0 C0.16508812 4.74018901 -1.91941459 9.36413251 -4 14 C-4.33 14 -4.66 14 -5 14 C-4.53411505 8.29290936 -3.06242216 4.84060277 0 0 Z " fill="#201E19" transform="translate(250,317)"/>
<path d="M0 0 C0.33 0 0.66 0 1 0 C1.19600577 2.22843488 1.38146569 4.45779893 1.5625 6.6875 C1.66691406 7.92886719 1.77132812 9.17023438 1.87890625 10.44921875 C1.98493841 13.55835533 1.77228525 16.00810972 1 19 C0.67 19 0.34 19 0 19 C-0.95494281 12.42150508 -0.8931507 6.58183362 0 0 Z " fill="#25241E" transform="translate(824,335)"/>
<path d="M0 0 C0.66 0 1.32 0 2 0 C2.67119549 1.4562545 3.33681807 2.91507867 4 4.375 C4.556875 5.59316406 4.556875 5.59316406 5.125 6.8359375 C6 9 6 9 6 11 C3 10 3 10 1.3125 7.1875 C0 4 0 4 0 0 Z " fill="#171613" transform="translate(570,749)"/>
<path d="M0 0 C0.33 0 0.66 0 1 0 C1.33 4.95 1.66 9.9 2 15 C1.01 15 0.02 15 -1 15 C-0.67 10.05 -0.34 5.1 0 0 Z " fill="#2C2A24" transform="translate(820,297)"/>
<path d="M0 0 C0.33 0 0.66 0 1 0 C1.06058594 0.75925781 1.12117188 1.51851562 1.18359375 2.30078125 C1.26738281 3.29464844 1.35117187 4.28851562 1.4375 5.3125 C1.55931641 6.79169922 1.55931641 6.79169922 1.68359375 8.30078125 C1.91812559 11.09375599 1.91812559 11.09375599 3 14 C2.01 14.495 2.01 14.495 1 15 C0.34 15.99 -0.32 16.98 -1 18 C-0.505 9.09 -0.505 9.09 0 0 Z " fill="#3C3931" transform="translate(459,709)"/>
<path d="M0 0 C0 0.33 0 0.66 0 1 C-1.58086048 1.36504603 -3.16483907 1.71660506 -4.75 2.0625 C-5.63171875 2.25972656 -6.5134375 2.45695313 -7.421875 2.66015625 C-9.98679028 2.99825872 -11.57091639 2.81158635 -14 2 C-9.92616313 -2.07383687 -5.32200558 -0.93917746 0 0 Z " fill="#2A2822" transform="translate(356,243)"/>
<path d="M0 0 C3.09998746 0.33214151 4.0545012 1.0545012 6.3125 3.3125 C8 6 8 6 7.60546875 8.16796875 C7.40566406 8.77253906 7.20585938 9.37710937 7 10 C5.83043409 8.52312468 4.66441854 7.04343707 3.5 5.5625 C2.8503125 4.73878906 2.200625 3.91507812 1.53125 3.06640625 C0 1 0 1 0 0 Z " fill="#201E19" transform="translate(754,293)"/>
<path d="M0 0 C0.99 0.66 1.98 1.32 3 2 C1.71186658 2.83878455 0.41936744 3.67086783 -0.875 4.5 C-1.59429687 4.9640625 -2.31359375 5.428125 -3.0546875 5.90625 C-5 7 -5 7 -7 7 C-5.66667905 3.00003714 -3.5042173 2.16217663 0 0 Z " fill="#1E1C17" transform="translate(306,258)"/>
<path d="M0 0 C0.99 0.495 0.99 0.495 2 1 C2.4140625 3.72265625 2.4140625 3.72265625 2.625 7.0625 C2.69976562 8.16722656 2.77453125 9.27195313 2.8515625 10.41015625 C2.90054688 11.26480469 2.94953125 12.11945313 3 13 C2.34 13 1.68 13 1 13 C0.67 13.99 0.34 14.98 0 16 C0 10.72 0 5.44 0 0 Z " fill="#37352F" transform="translate(208,241)"/>
<path d="M0 0 C3.125 0.6875 3.125 0.6875 6 2 C6.33 2.99 6.66 3.98 7 5 C5.68 5.33 4.36 5.66 3 6 C3 5.34 3 4.68 3 4 C1.02 3.34 -0.96 2.68 -3 2 C-2.01 1.34 -1.02 0.68 0 0 Z " fill="#2F2C25" transform="translate(695,249)"/>
<path d="M0 0 C0.33 0 0.66 0 1 0 C1.33 2.97 1.66 5.94 2 9 C-1 11 -1 11 -3.1875 10.625 C-3.785625 10.41875 -4.38375 10.2125 -5 10 C-4.360625 9.649375 -3.72125 9.29875 -3.0625 8.9375 C-0.17836168 6.22815794 -0.2899178 3.84141089 0 0 Z " fill="#343129" transform="translate(828,370)"/>
<path d="M0 0 C0.33 0 0.66 0 1 0 C1.24915939 1.76813112 1.47366632 3.53974982 1.6875 5.3125 C1.81511719 6.29863281 1.94273437 7.28476563 2.07421875 8.30078125 C2 11 2 11 -1 14 C-0.67 9.38 -0.34 4.76 0 0 Z " fill="#36352C" transform="translate(213,207)"/>
<path d="M0 0 C2 1 2 1 2.703125 2.77734375 C2.88359375 3.49019531 3.0640625 4.20304687 3.25 4.9375 C3.44078125 5.64777344 3.6315625 6.35804688 3.828125 7.08984375 C3.88484375 7.72019531 3.9415625 8.35054688 4 9 C3.34 9.66 2.68 10.32 2 11 C0.57741188 7.17679443 -0.24042276 4.08718695 0 0 Z " fill="#1A1915" transform="translate(791,359)"/>
<path d="M0 0 C0.33 0.99 0.66 1.98 1 3 C-1.64 3.33 -4.28 3.66 -7 4 C-7.33 3.34 -7.66 2.68 -8 2 C-5.36 1.34 -2.72 0.68 0 0 Z " fill="#1D1B18" transform="translate(815,380)"/>
<path d="M0 0 C0.33 0 0.66 0 1 0 C1.33 4.95 1.66 9.9 2 15 C-1.25985541 10.65352612 -1.34252339 10.2519968 -0.6875 5.25 C-0.50767578 3.77273438 -0.50767578 3.77273438 -0.32421875 2.265625 C-0.21722656 1.51796875 -0.11023438 0.7703125 0 0 Z " fill="#3A372F" transform="translate(826,352)"/>
<path d="M0 0 C3.24208567 0.35049575 4.61527704 0.56221181 6.8125 3.0625 C7.204375 3.701875 7.59625 4.34125 8 5 C5 5 5 5 2.3125 2.5 C1.549375 1.675 0.78625 0.85 0 0 Z " fill="#1D1B16" transform="translate(730,270)"/>
<path d="M0 0 C0.99 0.66 1.98 1.32 3 2 C-1.455 3.485 -1.455 3.485 -6 5 C-5 2 -5 2 -2.625 0.6875 C-1.75875 0.460625 -0.8925 0.23375 0 0 Z " fill="#1F1E19" transform="translate(323,250)"/>
<path d="M0 0 C1 4 1 4 1 4 Z " fill="#5A5446" transform="translate(192,378)"/>
<path d="M0 0 C1 4 1 4 1 4 Z " fill="#464338" transform="translate(201,296)"/>
<path d="M0 0 C1 4 1 4 1 4 Z " fill="#444038" transform="translate(815,233)"/>
<path d="M0 0 C3 1 3 1 3 1 Z " fill="#726B56" transform="translate(352,795)"/>
<path d="M0 0 C0.99 0.495 0.99 0.495 2 1 C1.01 1.495 1.01 1.495 0 2 C0 1.34 0 0.68 0 0 Z " fill="#524E41" transform="translate(408,784)"/>
<path d="M0 0 C0.99 0.495 0.99 0.495 2 1 C1.01 1.495 1.01 1.495 0 2 C0 1.34 0 0.68 0 0 Z " fill="#4D483B" transform="translate(424,776)"/>
<path d="" fill="#48443B" transform="translate(0,0)"/>
<path d="M0 0 C3 1 3 1 3 1 Z " fill="#504B3E" transform="translate(647,243)"/>
<path d="M0 0 C0.99 0.495 0.99 0.495 2 1 C1.01 1.495 1.01 1.495 0 2 C0 1.34 0 0.68 0 0 Z " fill="#443F34" transform="translate(457,243)"/>
<path d="" fill="#454137" transform="translate(0,0)"/>
<path d="M0 0 C2 1 2 1 2 1 Z " fill="#4F483E" transform="translate(628,792)"/>
<path d="" fill="#4E493C" transform="translate(0,0)"/>
<path d="" fill="#454237" transform="translate(0,0)"/>
<path d="" fill="#413E33" transform="translate(0,0)"/>
<path d="" fill="#424034" transform="translate(0,0)"/>
<path d="" fill="#534E41" transform="translate(0,0)"/>
<path d="" fill="#4B463C" transform="translate(0,0)"/>
<path d="" fill="#484439" transform="translate(0,0)"/>
<path d="M0 0 C2 1 2 1 2 1 Z " fill="#4C453A" transform="translate(693,252)"/>
<path d="" fill="#484439" transform="translate(0,0)"/>
<path d="" fill="#6B6550" transform="translate(0,0)"/>
<path d="" fill="#4E4A39" transform="translate(0,0)"/>
<path d="" fill="#4E4C3E" transform="translate(0,0)"/>
<path d="" fill="#6F6854" transform="translate(0,0)"/>
<path d="" fill="#6D6754" transform="translate(0,0)"/>
<path d="" fill="#66614F" transform="translate(0,0)"/>
<path d="" fill="#5D5847" transform="translate(0,0)"/>
<path d="" fill="#625C4C" transform="translate(0,0)"/>
<path d="" fill="#54503F" transform="translate(0,0)"/>
<path d="" fill="#545040" transform="translate(0,0)"/>
<path d="" fill="#504A3D" transform="translate(0,0)"/>
<path d="" fill="#4D483A" transform="translate(0,0)"/>
<path d="" fill="#4C463D" transform="translate(0,0)"/>
<path d="" fill="#4C493C" transform="translate(0,0)"/>
<path d="" fill="#514E40" transform="translate(0,0)"/>
<path d="" fill="#4D463B" transform="translate(0,0)"/>
<path d="" fill="#4C4739" transform="translate(0,0)"/>
<path d="" fill="#4E493C" transform="translate(0,0)"/>
<path d="" fill="#4D473B" transform="translate(0,0)"/>
<path d="" fill="#4A473B" transform="translate(0,0)"/>
<path d="" fill="#4C473D" transform="translate(0,0)"/>
<path d="" fill="#4C463B" transform="translate(0,0)"/>
<path d="" fill="#494437" transform="translate(0,0)"/>
<path d="" fill="#4B473B" transform="translate(0,0)"/>
<path d="" fill="#4A443A" transform="translate(0,0)"/>
<path d="" fill="#48453A" transform="translate(0,0)"/>
<path d="" fill="#4F4B3D" transform="translate(0,0)"/>
<path d="" fill="#4D4A3B" transform="translate(0,0)"/>
<path d="" fill="#4D483C" transform="translate(0,0)"/>
<path d="" fill="#48453A" transform="translate(0,0)"/>
<path d="" fill="#4F4A3A" transform="translate(0,0)"/>
<path d="" fill="#413E31" transform="translate(0,0)"/>
<path d="" fill="#494337" transform="translate(0,0)"/>
<path d="" fill="#5E5847" transform="translate(0,0)"/>
<path d="" fill="#404134" transform="translate(0,0)"/>
<path d="" fill="#404033" transform="translate(0,0)"/>
<path d="" fill="#464035" transform="translate(0,0)"/>
<path d="" fill="#413F31" transform="translate(0,0)"/>
<path d="" fill="#423E36" transform="translate(0,0)"/>
<path d="" fill="#413F33" transform="translate(0,0)"/>
<path d="" fill="#555140" transform="translate(0,0)"/>
<path d="" fill="#605B49" transform="translate(0,0)"/>
<path d="" fill="#494537" transform="translate(0,0)"/>
<path d="" fill="#444235" transform="translate(0,0)"/>
<path d="" fill="#4B423B" transform="translate(0,0)"/>
<path d="" fill="#454536" transform="translate(0,0)"/>
<path d="" fill="#484238" transform="translate(0,0)"/>
<path d="" fill="#464638" transform="translate(0,0)"/>
<path d="" fill="#595444" transform="translate(0,0)"/>
<path d="" fill="#595245" transform="translate(0,0)"/>
<path d="" fill="#565143" transform="translate(0,0)"/>
<path d="" fill="#565142" transform="translate(0,0)"/>
<path d="" fill="#464238" transform="translate(0,0)"/>
<path d="" fill="#534D41" transform="translate(0,0)"/>
<path d="" fill="#534F43" transform="translate(0,0)"/>
<path d="" fill="#524F3F" transform="translate(0,0)"/>
<path d="" fill="#595445" transform="translate(0,0)"/>
<path d="" fill="#514C3E" transform="translate(0,0)"/>
<path d="" fill="#49463D" transform="translate(0,0)"/>
<path d="" fill="#494538" transform="translate(0,0)"/>
<path d="" fill="#504D40" transform="translate(0,0)"/>
<path d="" fill="#4B493C" transform="translate(0,0)"/>
<path d="" fill="#4F4B3C" transform="translate(0,0)"/>
<path d="" fill="#4A453A" transform="translate(0,0)"/>
<path d="" fill="#4A4639" transform="translate(0,0)"/>
<path d="" fill="#4F493D" transform="translate(0,0)"/>
<path d="" fill="#4F473E" transform="translate(0,0)"/>
<path d="" fill="#4C483E" transform="translate(0,0)"/>
<path d="" fill="#444133" transform="translate(0,0)"/>
<path d="" fill="#5C5847" transform="translate(0,0)"/>
<path d="" fill="#484239" transform="translate(0,0)"/>
<path d="" fill="#4A473A" transform="translate(0,0)"/>
<path d="" fill="#4D493D" transform="translate(0,0)"/>
<path d="" fill="#4D483C" transform="translate(0,0)"/>
<path d="" fill="#4C483C" transform="translate(0,0)"/>
<path d="" fill="#454236" transform="translate(0,0)"/>
<path d="" fill="#4F4A3C" transform="translate(0,0)"/>
<path d="" fill="#635D4A" transform="translate(0,0)"/>
<path d="" fill="#4F493D" transform="translate(0,0)"/>
<path d="" fill="#4D473B" transform="translate(0,0)"/>
<path d="" fill="#4B4739" transform="translate(0,0)"/>
<path d="" fill="#4E493B" transform="translate(0,0)"/>
<path d="" fill="#4E4A3B" transform="translate(0,0)"/>
<path d="" fill="#494436" transform="translate(0,0)"/>
<path d="" fill="#4E4A3E" transform="translate(0,0)"/>
<path d="" fill="#4E4A3E" transform="translate(0,0)"/>
<path d="" fill="#4E4A3D" transform="translate(0,0)"/>
<path d="" fill="#4B453A" transform="translate(0,0)"/>
<path d="" fill="#464236" transform="translate(0,0)"/>
<path d="" fill="#46433A" transform="translate(0,0)"/>
<path d="" fill="#4C473C" transform="translate(0,0)"/>
<path d="" fill="#4C483A" transform="translate(0,0)"/>
<path d="" fill="#4B473B" transform="translate(0,0)"/>
<path d="" fill="#4A4639" transform="translate(0,0)"/>
<path d="" fill="#4B4439" transform="translate(0,0)"/>
<path d="" fill="#434136" transform="translate(0,0)"/>
<path d="" fill="#464237" transform="translate(0,0)"/>
<path d="" fill="#4D493A" transform="translate(0,0)"/>
<path d="" fill="#4D493F" transform="translate(0,0)"/>
<path d="" fill="#443F35" transform="translate(0,0)"/>
<path d="" fill="#474537" transform="translate(0,0)"/>
<path d="" fill="#4E483D" transform="translate(0,0)"/>
<path d="" fill="#454134" transform="translate(0,0)"/>
<path d="" fill="#474237" transform="translate(0,0)"/>
<path d="" fill="#454235" transform="translate(0,0)"/>
<path d="" fill="#4D493D" transform="translate(0,0)"/>
<path d="" fill="#4A473A" transform="translate(0,0)"/>
<path d="" fill="#49443B" transform="translate(0,0)"/>
<path d="" fill="#454237" transform="translate(0,0)"/>
<path d="" fill="#4A443B" transform="translate(0,0)"/>
<path d="" fill="#49463B" transform="translate(0,0)"/>
<path d="" fill="#4C4939" transform="translate(0,0)"/>
<path d="" fill="#48463B" transform="translate(0,0)"/>
<path d="" fill="#4B4338" transform="translate(0,0)"/>
<path d="" fill="#494336" transform="translate(0,0)"/>
<path d="" fill="#4F4A3B" transform="translate(0,0)"/>
<path d="" fill="#4B463D" transform="translate(0,0)"/>
<path d="" fill="#4D473C" transform="translate(0,0)"/>
<path d="" fill="#4B463A" transform="translate(0,0)"/>
<path d="" fill="#4A453A" transform="translate(0,0)"/>
<path d="" fill="#4C4638" transform="translate(0,0)"/>
<path d="" fill="#4F483D" transform="translate(0,0)"/>
<path d="" fill="#4E483B" transform="translate(0,0)"/>
<path d="" fill="#4E493E" transform="translate(0,0)"/>
<path d="" fill="#4E483D" transform="translate(0,0)"/>
<path d="" fill="#4E473C" transform="translate(0,0)"/>
<path d="" fill="#4D493D" transform="translate(0,0)"/>
<path d="" fill="#4F493D" transform="translate(0,0)"/>
<path d="" fill="#514C3D" transform="translate(0,0)"/>
<path d="" fill="#514A3D" transform="translate(0,0)"/>
<path d="" fill="#4F4A3E" transform="translate(0,0)"/>
<path d="" fill="#444339" transform="translate(0,0)"/>
<path d="" fill="#484538" transform="translate(0,0)"/>
<path d="" fill="#4A473A" transform="translate(0,0)"/>
<path d="" fill="#4A463B" transform="translate(0,0)"/>
<path d="" fill="#4A4739" transform="translate(0,0)"/>
<path d="" fill="#444134" transform="translate(0,0)"/>
<path d="" fill="#474537" transform="translate(0,0)"/>
<path d="" fill="#464133" transform="translate(0,0)"/>
<path d="" fill="#444134" transform="translate(0,0)"/>
<path d="" fill="#434034" transform="translate(0,0)"/>
<path d="" fill="#534E3F" transform="translate(0,0)"/>
<path d="" fill="#2F2E22" transform="translate(0,0)"/>
<path d="" fill="#3B372B" transform="translate(0,0)"/>
</svg>
